<svg width="188" height="25" viewBox="0 0 188 25" fill="none" xmlns="http://www.w3.org/2000/svg">
<circle cx="9" cy="12.5" r="8" stroke="#0000FF" stroke-width="2"/>
<rect x="1" y="11.75" width="16" height="1.5" fill="#0000FF"/>
<path fill-rule="evenodd" clip-rule="evenodd" d="M7.8708 5.17155C8.07652 4.94317 8.24642 4.75456 8.39999 4.5498L9.59999 5.4498C9.40453 5.71043 9.16312 5.97864 8.9341 6.2331C8.84425 6.33292 8.75631 6.43063 8.6738 6.52493C8.36134 6.88203 8.0527 7.26761 7.77463 7.7496C7.22656 8.6996 6.74999 10.107 6.74999 12.4998C6.74999 15.0124 6.38685 16.5244 5.61997 17.3765C4.83119 18.253 3.77322 18.2511 3.07498 18.2499C3.0495 18.2498 3.02449 18.2498 3 18.2498V16.7498C3.80436 16.7498 4.1976 16.7147 4.50502 16.3731C4.86314 15.9752 5.24999 14.9872 5.24999 12.4998C5.24999 9.89256 5.77343 8.21668 6.47535 7.00001C6.82228 6.39867 7.20114 5.93008 7.54494 5.53718C7.66341 5.40178 7.77129 5.28201 7.8708 5.17155Z" fill="#0000FF"/>
<path fill-rule="evenodd" clip-rule="evenodd" d="M13.495 16.3731C13.8024 16.7147 14.1956 16.7498 15 16.7498L15 18.2498C14.9755 18.2498 14.9505 18.2499 14.925 18.2499C14.2268 18.2511 13.1688 18.253 12.38 17.3765C11.6131 16.5244 11.25 15.0124 11.25 12.4998C11.25 10.1071 10.7734 8.69961 10.2254 7.74961C9.9473 7.26762 9.63865 6.88204 9.3262 6.52495C9.24368 6.43065 9.15574 6.33294 9.06589 6.23311C8.83688 5.97866 8.59547 5.71044 8.4 5.44982L9.6 4.54982C9.75357 4.75458 9.92347 4.94319 10.1292 5.17156C10.2287 5.28203 10.3366 5.40179 10.4551 5.53719C10.7989 5.9301 11.1777 6.39868 11.5246 7.00003C12.2266 8.21669 12.75 9.89257 12.75 12.4998C12.75 14.9872 13.1369 15.9752 13.495 16.3731Z" fill="#0000FF"/>
<path d="M28.0909 18V6.36364H35.3068V7.875H29.8466V11.4205H34.7898V12.9261H29.8466V18H28.0909ZM37.4659 18V6.36364H39.2216V16.4886H44.4943V18H37.4659ZM48.0739 18H46.2102L50.3977 6.36364H52.4261L56.6136 18H54.75L51.4602 8.47727H51.3693L48.0739 18ZM48.3864 13.4432H54.4318V14.9205H48.3864V13.4432ZM65.6222 10.0398C65.5123 9.69508 65.3646 9.38636 65.179 9.11364C64.9972 8.83712 64.7794 8.60227 64.5256 8.40909C64.2718 8.21212 63.982 8.0625 63.6562 7.96023C63.3343 7.85795 62.9801 7.80682 62.5938 7.80682C61.9384 7.80682 61.3475 7.97538 60.821 8.3125C60.2945 8.64962 59.8778 9.14394 59.571 9.79545C59.268 10.4432 59.1165 11.2367 59.1165 12.1761C59.1165 13.1193 59.2699 13.9167 59.5767 14.5682C59.8835 15.2197 60.304 15.714 60.8381 16.0511C61.3722 16.3883 61.9801 16.5568 62.6619 16.5568C63.2945 16.5568 63.8456 16.428 64.3153 16.1705C64.7888 15.9129 65.1544 15.5492 65.4119 15.0795C65.6733 14.6061 65.804 14.0492 65.804 13.4091L66.2585 13.4943H62.929V12.0455H67.5028V13.3693C67.5028 14.3466 67.2945 15.1951 66.8778 15.9148C66.465 16.6307 65.893 17.1837 65.1619 17.5739C64.4347 17.964 63.6013 18.1591 62.6619 18.1591C61.6089 18.1591 60.6847 17.9167 59.8892 17.4318C59.0975 16.947 58.4801 16.2595 58.0369 15.3693C57.5938 14.4754 57.3722 13.4148 57.3722 12.1875C57.3722 11.2595 57.5009 10.4261 57.7585 9.6875C58.0161 8.94886 58.3778 8.32197 58.8438 7.80682C59.3134 7.28788 59.8646 6.89205 60.4972 6.61932C61.1335 6.3428 61.8286 6.20455 62.5824 6.20455C63.2112 6.20455 63.7964 6.29735 64.3381 6.48295C64.8835 6.66856 65.3684 6.93182 65.7926 7.27273C66.2206 7.61364 66.5748 8.01894 66.8551 8.48864C67.1354 8.95455 67.3248 9.47159 67.4233 10.0398H65.6222ZM74.9489 18H73.0852L77.2727 6.36364H79.3011L83.4886 18H81.625L78.3352 8.47727H78.2443L74.9489 18ZM75.2614 13.4432H81.3068V14.9205H75.2614V13.4432ZM85.169 18V6.36364H89.3168C90.2183 6.36364 90.9664 6.51894 91.5611 6.82955C92.1596 7.14015 92.6065 7.57008 92.902 8.11932C93.1974 8.66477 93.3452 9.29545 93.3452 10.0114C93.3452 10.7235 93.1955 11.3504 92.8963 11.892C92.6009 12.4299 92.1539 12.8485 91.5554 13.1477C90.9607 13.447 90.2126 13.5966 89.3111 13.5966H86.169V12.0852H89.152C89.7202 12.0852 90.1823 12.0038 90.5384 11.8409C90.8982 11.678 91.1615 11.4413 91.3281 11.1307C91.4948 10.8201 91.5781 10.447 91.5781 10.0114C91.5781 9.57197 91.4929 9.19129 91.3224 8.86932C91.1558 8.54735 90.8925 8.30114 90.5327 8.13068C90.1766 7.95644 89.7088 7.86932 89.1293 7.86932H86.9247V18H85.169ZM90.9134 12.75L93.7884 18H91.7884L88.9702 12.75H90.9134ZM105.146 10.1477H103.374C103.305 9.76894 103.179 9.43561 102.993 9.14773C102.807 8.85985 102.58 8.61553 102.311 8.41477C102.042 8.21401 101.741 8.0625 101.408 7.96023C101.078 7.85795 100.728 7.80682 100.357 7.80682C99.6861 7.80682 99.0857 7.97538 98.5554 8.3125C98.0289 8.64962 97.6122 9.14394 97.3054 9.79545C97.0024 10.447 96.8509 11.2424 96.8509 12.1818C96.8509 13.1288 97.0024 13.928 97.3054 14.5795C97.6122 15.2311 98.0308 15.7235 98.5611 16.0568C99.0914 16.3902 99.688 16.5568 100.351 16.5568C100.718 16.5568 101.067 16.5076 101.396 16.4091C101.73 16.3068 102.031 16.1572 102.3 15.9602C102.569 15.7633 102.796 15.5227 102.982 15.2386C103.171 14.9508 103.302 14.6212 103.374 14.25L105.146 14.2557C105.052 14.8277 104.868 15.3542 104.595 15.8352C104.326 16.3125 103.98 16.7254 103.555 17.0739C103.135 17.4186 102.654 17.6856 102.112 17.875C101.571 18.0644 100.98 18.1591 100.339 18.1591C99.3319 18.1591 98.4342 17.9205 97.6463 17.4432C96.8584 16.9621 96.2372 16.2746 95.7827 15.3807C95.3319 14.4867 95.1065 13.4205 95.1065 12.1818C95.1065 10.9394 95.3338 9.87311 95.7884 8.98295C96.2429 8.08901 96.8641 7.40341 97.652 6.92614C98.4399 6.44508 99.3357 6.20455 100.339 6.20455C100.957 6.20455 101.533 6.29356 102.067 6.47159C102.605 6.64583 103.088 6.90341 103.516 7.24432C103.944 7.58144 104.298 7.99432 104.578 8.48295C104.858 8.9678 105.048 9.52273 105.146 10.1477ZM107.247 18V6.36364H109.003V11.4205H114.804V6.36364H116.565V18H114.804V12.9261H109.003V18H107.247ZM120.878 6.36364V18H119.122V6.36364H120.878ZM124.452 6.36364L127.69 15.8409H127.821L131.06 6.36364H132.957L128.77 18H126.741L122.554 6.36364H124.452ZM134.638 18V6.36364H141.933V7.875H136.393V11.4205H141.553V12.9261H136.393V16.4886H142.001V18H134.638Z" fill="#0000FF"/>
<rect x="151" y="0.5" width="37" height="24" rx="8" fill="#0000FF"/>
<path d="M170.489 7.77273H171.81V13.5128C171.81 14.1236 171.667 14.6648 171.38 15.1364C171.093 15.6051 170.689 15.9744 170.169 16.2443C169.65 16.5114 169.04 16.6449 168.341 16.6449C167.645 16.6449 167.037 16.5114 166.517 16.2443C165.998 15.9744 165.594 15.6051 165.307 15.1364C165.02 14.6648 164.877 14.1236 164.877 13.5128V7.77273H166.194V13.4062C166.194 13.8011 166.28 14.152 166.453 14.4588C166.63 14.7656 166.878 15.0071 167.199 15.1832C167.52 15.3565 167.901 15.4432 168.341 15.4432C168.784 15.4432 169.167 15.3565 169.488 15.1832C169.811 15.0071 170.059 14.7656 170.229 14.4588C170.402 14.152 170.489 13.8011 170.489 13.4062V7.77273ZM175.041 7.77273V16.5H173.724V7.77273H175.041Z" fill="white"/>
</svg>
