<svg width="124" height="36" viewBox="0 0 124 36" fill="none" xmlns="http://www.w3.org/2000/svg">
<path d="M1.63778 16V4.36364H8.85369V5.875H3.39347V9.42045H8.33665V10.9261H3.39347V16H1.63778ZM11.0128 16V4.36364H12.7685V14.4886H18.0412V16H11.0128ZM21.6207 16H19.7571L23.9446 4.36364H25.973L30.1605 16H28.2969L25.0071 6.47727H24.9162L21.6207 16ZM21.9332 11.4432H27.9787V12.9205H21.9332V11.4432ZM39.169 8.03977C39.0592 7.69508 38.9115 7.38636 38.7259 7.11364C38.544 6.83712 38.3262 6.60227 38.0724 6.40909C37.8187 6.21212 37.5289 6.0625 37.2031 5.96023C36.8812 5.85795 36.527 5.80682 36.1406 5.80682C35.4853 5.80682 34.8944 5.97538 34.3679 6.3125C33.8414 6.64962 33.4247 7.14394 33.1179 7.79545C32.8149 8.44318 32.6634 9.23674 32.6634 10.1761C32.6634 11.1193 32.8168 11.9167 33.1236 12.5682C33.4304 13.2197 33.8509 13.714 34.3849 14.0511C34.919 14.3883 35.527 14.5568 36.2088 14.5568C36.8414 14.5568 37.3925 14.428 37.8622 14.1705C38.3357 13.9129 38.7012 13.5492 38.9588 13.0795C39.2202 12.6061 39.3509 12.0492 39.3509 11.4091L39.8054 11.4943H36.4759V10.0455H41.0497V11.3693C41.0497 12.3466 40.8414 13.1951 40.4247 13.9148C40.0118 14.6307 39.4399 15.1837 38.7088 15.5739C37.9815 15.964 37.1482 16.1591 36.2088 16.1591C35.1558 16.1591 34.2315 15.9167 33.4361 15.4318C32.6444 14.947 32.027 14.2595 31.5838 13.3693C31.1406 12.4754 30.919 11.4148 30.919 10.1875C30.919 9.25947 31.0478 8.42614 31.3054 7.6875C31.563 6.94886 31.9247 6.32197 32.3906 5.80682C32.8603 5.28788 33.4115 4.89205 34.044 4.61932C34.6804 4.3428 35.3755 4.20455 36.1293 4.20455C36.758 4.20455 37.3433 4.29735 37.8849 4.48295C38.4304 4.66856 38.9152 4.93182 39.3395 5.27273C39.7675 5.61364 40.1217 6.01894 40.402 6.48864C40.6823 6.95455 40.8717 7.47159 40.9702 8.03977H39.169Z" fill="#0000FF"/>
<path d="M55.9489 32H54.0852L58.2727 20.3636H60.3011L64.4886 32H62.625L59.3352 22.4773H59.2443L55.9489 32ZM56.2614 27.4432H62.3068V28.9205H56.2614V27.4432ZM66.169 32V20.3636H70.3168C71.2183 20.3636 71.9664 20.5189 72.5611 20.8295C73.1596 21.1402 73.6065 21.5701 73.902 22.1193C74.1974 22.6648 74.3452 23.2955 74.3452 24.0114C74.3452 24.7235 74.1955 25.3504 73.8963 25.892C73.6009 26.4299 73.1539 26.8485 72.5554 27.1477C71.9607 27.447 71.2126 27.5966 70.3111 27.5966H67.169V26.0852H70.152C70.7202 26.0852 71.1823 26.0038 71.5384 25.8409C71.8982 25.678 72.1615 25.4413 72.3281 25.1307C72.4948 24.8201 72.5781 24.447 72.5781 24.0114C72.5781 23.572 72.4929 23.1913 72.3224 22.8693C72.1558 22.5473 71.8925 22.3011 71.5327 22.1307C71.1766 21.9564 70.7088 21.8693 70.1293 21.8693H67.9247V32H66.169ZM71.9134 26.75L74.7884 32H72.7884L69.9702 26.75H71.9134ZM86.1463 24.1477H84.3736C84.3054 23.7689 84.1785 23.4356 83.9929 23.1477C83.8073 22.8598 83.58 22.6155 83.3111 22.4148C83.0421 22.214 82.741 22.0625 82.4077 21.9602C82.0781 21.858 81.7277 21.8068 81.3565 21.8068C80.6861 21.8068 80.0857 21.9754 79.5554 22.3125C79.0289 22.6496 78.6122 23.1439 78.3054 23.7955C78.0024 24.447 77.8509 25.2424 77.8509 26.1818C77.8509 27.1288 78.0024 27.928 78.3054 28.5795C78.6122 29.2311 79.0308 29.7235 79.5611 30.0568C80.0914 30.3902 80.688 30.5568 81.3509 30.5568C81.7183 30.5568 82.0668 30.5076 82.3963 30.4091C82.7296 30.3068 83.0308 30.1572 83.2997 29.9602C83.5687 29.7633 83.7959 29.5227 83.9815 29.2386C84.1709 28.9508 84.3016 28.6212 84.3736 28.25L86.1463 28.2557C86.0516 28.8277 85.8679 29.3542 85.5952 29.8352C85.3262 30.3125 84.9796 30.7254 84.5554 31.0739C84.1349 31.4186 83.6539 31.6856 83.1122 31.875C82.5705 32.0644 81.9796 32.1591 81.3395 32.1591C80.3319 32.1591 79.4342 31.9205 78.6463 31.4432C77.8584 30.9621 77.2372 30.2746 76.7827 29.3807C76.3319 28.4867 76.1065 27.4205 76.1065 26.1818C76.1065 24.9394 76.3338 23.8731 76.7884 22.983C77.2429 22.089 77.8641 21.4034 78.652 20.9261C79.4399 20.4451 80.3357 20.2045 81.3395 20.2045C81.9569 20.2045 82.5327 20.2936 83.0668 20.4716C83.6046 20.6458 84.0876 20.9034 84.5156 21.2443C84.9437 21.5814 85.2978 21.9943 85.5781 22.483C85.8584 22.9678 86.0478 23.5227 86.1463 24.1477ZM88.2472 32V20.3636H90.0028V25.4205H95.804V20.3636H97.5653V32H95.804V26.9261H90.0028V32H88.2472ZM101.878 20.3636V32H100.122V20.3636H101.878ZM105.452 20.3636L108.69 29.8409H108.821L112.06 20.3636H113.957L109.77 32H107.741L103.554 20.3636H105.452ZM115.638 32V20.3636H122.933V21.875H117.393V25.4205H122.553V26.9261H117.393V30.4886H123.001V32H115.638Z" fill="#0000FF"/>
<path d="M61.5 6C55.013 6 49.0065 19.5 43 19.5V31" stroke="#0000FF" stroke-width="2" stroke-linecap="round"/>
<path d="M43 24.5C49.0065 24.5 55.013 11 61.5 11" stroke="#0000FF" stroke-width="2" stroke-linecap="round"/>
<path d="M61.5 1C59.4574 1 57.4624 2.33853 55.5 4.17264" stroke="#0000FF" stroke-width="2" stroke-linecap="round"/>
</svg>
